<?xml version="1.0" encoding="utf-8"?>
<!-- Generator: Adobe Illustrator 19.0.0, SVG Export Plug-In . SVG Version: 6.00 Build 0)  -->
<svg version="1.1" id="Layer_1" xmlns="http://www.w3.org/2000/svg" xmlns:xlink="http://www.w3.org/1999/xlink" x="0px" y="0px"
	 viewBox="0 0 190 40.3" style="enable-background:new 0 0 190 40.3;" xml:space="preserve">
<style type="text/css">
	.st0{fill:#E2E2E2;}
	.st1{fill:#3E3E3E;}
</style>
<path class="st0" d="M53,8.2c0,0,0.4-4.3-3.9-4.3h-15c0,0-3.7,0.5-3.7,4.3v28.4c0,0,0.3,3.6,4.4,3.6h14.3c0,0,4.5,0.3,4.5-5
	c0,0,0.4-4-4.5-4l-7.1,0l0-5.3h4.9c0,0,2.8,0,2.8-3.6c0,0,0.5-5.4-2.6-5.4l-5.1,0l0-4.5h8.6C50.6,12.3,53,12.1,53,8.2z"/>
<path class="st0" d="M132.3,8.3c0,0,0.4-4.3-3.9-4.3h-15c0,0-3.7,0.5-3.7,4.3v28.4c0,0,0.3,3.6,4.4,3.6h14.3c0,0,4.5,0.3,4.5-5
	c0,0,0.4-4-4.5-4l-7.1,0l0-5.3h4.9c0,0,2.8,0,2.8-3.6c0,0,0.5-5.4-2.6-5.4l-5.1,0l0-4.5h8.6C129.9,12.5,132.3,12.2,132.3,8.3z"/>
<path class="st0" d="M81.6,7.4c0,0-0.1-3.6,3.6-3.6h5c0,0,3.4,0,3.4,3.6v28.4c0,0-0.2,4.5-6,4.5c0,0-6,0.6-6-4.6L81.6,7.4z"/>
<path class="st0" d="M26.5,4.2c0,0,2.9-0.1,2.9,2.9v4c0,0,0,2.8-2.9,2.8H3.6c0,0-3.6-0.2-3.6-4.8c0,0-0.5-4.9,3.7-4.9H26.5z"/>
<path class="st0" d="M187.1,6.2c0,0-7.8-4.6-16.9,0c0,0-5,3.2-5.2,9.2c0,0,0.1,6.2,4.6,8c0,0,5.7,2.6,7.9,3.9c0,0,2.2,0.8,1.8,2.8
	c0,0,0.4,2.2-2,2.2c0,0-3.9-0.5-7-3.3c0,0-2.2-1.1-2.9,0.5c0,0-2.1,3.8-2.2,4.6c0,0-1,2,2,3.3c0,0,2.7,2.2,8.9,2.9
	c0,0,6.5,0.5,11.1-4.8c0,0,2.9-2.1,2.9-7.2c0,0,0.9-4.8-3.8-7.2c0,0-3-2.2-7.6-3.8c0,0-2.1-0.8-2.1-2.8c0,0,0.2-2.7,2.5-2.8
	c0,0,3.2,0,5.7,1.8c0,0,3.1,2.1,3.6-0.6C188.2,12.7,189.2,6.8,187.1,6.2z"/>
<path class="st1" d="M81.1,3.9c0,0,2.9,0.4,2.4,3.5l-0.7,4.3c0,0-0.5,2.9-3.4,2.4l-22.6-3.8c0,0-3.5-0.8-2.7-5.7
	c0,0,0.4-5.2,4.5-4.5L81.1,3.9z"/>
<path class="st0" d="M19.6,37.4c0,0,0.1,2.9-2.9,2.9h-4c0,0-2.8,0-2.8-2.9V14.5c0,0,0.2-3.6,4.8-3.6c0,0,4.9-0.5,4.9,3.7L19.6,37.4z
	"/>
<path class="st0" d="M80.6,4.2c0,0,2.9,0.4,2.4,3.3l-0.7,4c0,0-0.4,2.7-3.3,2.2L56.4,9.9c0,0-3.5-0.8-2.8-5.4c0,0,0.3-4.9,4.5-4.2
	L80.6,4.2z"/>
<path class="st0" d="M68.2,35.7c0,0-0.4,2.9-3.3,2.4l-4-0.7c0,0-2.7-0.4-2.2-3.3l3.8-22.6c0,0,0.8-3.5,5.4-2.8c0,0,4.9,0.3,4.2,4.5
	L68.2,35.7z"/>
<path class="st0" d="M163.6,11.9c0,0-0.1,0.9-1.8,0.6l-2.3-0.4c0,0-1.6-0.3-1.4-1.1l1.2-6.9c0,0,0.3-1.1,2.9-0.6
	c0,0,2.8,0.3,2.6,1.6L163.6,11.9z"/>
<path class="st0" d="M106,31.4c0,0,2.7-0.1,2.7,2.6v3.7c0,0,0,2.5-2.7,2.5H85c0,0-3.3-0.2-3.3-4.4c0,0-0.5-4.5,3.4-4.5L106,31.4z"/>
<path class="st0" d="M147.9,16.1c0,0,0.9,1.5-1.4,2.8l-3.2,1.9c0,0-2.2,1.3-3.1-0.2l-7-12c0,0-1-2,2.7-4.1c0,0,3.7-2.5,5-0.3
	L147.9,16.1z"/>
<path class="st0" d="M149.9,37.7c0,0,0.1,2.5-2.9,2.5h-4c0,0-2.8,0-2.8-2.5V17.9c0,0,0.2-3.1,4.8-3.1c0,0,4.9-0.4,4.9,3.2
	L149.9,37.7z"/>
<path class="st0" d="M150,20.5c0,0-0.8,1.6-3.2,0.2l-3.2-1.8c0,0-2.2-1.2-1.3-2.8l6.9-12c0,0,1.2-1.8,4.9,0.3c0,0,4,2,2.8,4.2
	L150,20.5z"/>
</svg>
